Coordinates
version=1
nRows=9
nColumns=24
inDegrees=yes

Units are S.I. units (second, meters, Newtons, ...)
Angles are in degrees.

endheader
time	pelvis_tilt	pelvis_list	pelvis_rotation	pelvis_tx	pelvis_ty	pelvis_tz	hip_flexion_r	hip_adduction_r	hip_rotation_r	knee_angle_r	ankle_angle_r	subtalar_angle_r	mtp_angle_r	hip_flexion_l	hip_adduction_l	hip_rotation_l	knee_angle_l	ankle_angle_l	subtalar_angle_l	mtp_angle_l	lumbar_extension	lumbar_bending	lumbar_rotation
      1.40700000	     -3.23787266	     -0.80429187	     -6.70185395	      0.93218901	      0.95729523	      0.33446758	    -20.35709992	     -0.08068695	      2.24962966	     -5.27487978	     16.23867207	      7.02722617	     12.53041508	     27.95059467	     -3.12918821	     -3.02518515	      6.07088060	      1.14793527	     -4.21524272	      2.70580417	    -10.01857139	      5.90681663	     10.70417658
      1.41116667	     -3.31330837	     -0.62052458	     -6.68271777	      0.93838696	      0.95660600	      0.33384202	    -20.45694776	     -0.33141406	      2.08730892	     -5.59974808	     15.99863900	      7.10301733	     12.59093687	     28.11962609	     -2.86461672	     -2.67406380	      5.38907905	      0.79691802	     -4.73941175	      2.69858478	     -9.86122908	      5.64240120	     10.78665124
      1.41533333	     -3.33343280	     -0.40631356	     -6.66461378	      0.94464729	      0.95602071	      0.33322274	    -20.62148202	     -0.61911763	      1.92828507	     -5.90731629	     15.69944181	      7.13460157	     12.70961904	     28.20473378	     -2.56159579	     -2.29487325	      4.75478869	      0.31237404	     -5.41773861	      2.71519243	     -9.77484050	      5.34158854	     10.78370607
      1.41950000	     -3.37328374	     -0.18072282	     -6.65337137	      0.95094177	      0.95544870	      0.33259072	    -20.74058433	     -0.91837661	      1.76459530	     -6.26183395	     15.37505731	      7.14279486	     12.90222274	     28.30534692	     -2.24822291	     -1.91810439	      4.12115561	     -0.22380547	     -6.14125408	      2.75841609	     -9.65931828	      5.02683470	     10.79501956
      1.42366667	     -3.42347578	      0.06124536	     -6.63488994	      0.95729218	      0.95489844	      0.33194809	    -20.85730357	     -1.22967954	      1.60689531	     -6.59334448	     15.03079684	      7.15555792	     13.12855054	     28.42699931	     -1.91349040	     -1.59598185	      3.46661171	     -0.85554429	     -6.87156974	      2.81519717	     -9.51098760	      4.69687827	     10.81132477
      1.42783333	     -3.48159111	      0.31921641	     -6.62050980	      0.96366072	      0.95438218	      0.33128516	    -20.93611357	     -1.55827578	      1.43333566	     -6.98074727	     14.65479207	      7.15353660	     13.42670741	     28.54780473	     -1.56191918	     -1.26597757	      2.82724810	     -1.55221226	     -7.65485505	      2.88486444	     -9.36212532	      4.34880043	     10.82616150
      1.43200000	     -3.55133843	      0.58921870	     -6.60777689	      0.97007405	      0.95388500	      0.33062478	    -20.99362395	     -1.89677941	      1.26826320	     -7.38245102	     14.25455323	      7.12928903	     13.77026408	     28.68589418	     -1.19971445	     -0.98579334	      2.18595362	     -2.33042338	     -8.43506099	      2.97234321	     -9.19159550	      3.98662750	     10.84576800
      1.43616667	     -3.62588365	      0.87721587	     -6.59426066	      0.97650572	      0.95342537	      0.32994979	    -21.02738578	     -2.25288743	      1.09528501	     -7.81403354	     13.82430437	      7.10345518	     14.17240643	     28.83340477	     -0.81858751	     -0.72404880	      1.53269537	     -3.15267841	     -9.24061491	      3.07262067	     -9.01497984	      3.60049588	     10.87019149
      1.44033333	     -3.69383872	      1.17662015	     -6.57985654	      0.98295397	      0.95301156	      0.32924690	    -21.03038619	     -2.62305880	      0.88446545	     -8.31997706	     13.34423562	      7.05583865	     14.80640957	     28.96608067	     -0.42349390	     -0.42947221	      0.89524018	     -3.99373975	    -10.10129099	      3.22956261	     -8.86314849	      3.20181420	     10.89402914
